<svg id = "hills" width="100%" height="auto" preserveAspectRatio="none" viewBox="0 0 1440 590" xmlns="http://www.w3.org/2000/svg" rel="stylesheet" href="styles.css" class="transition duration-300 ease-in-out delay-150"><path d="M 0,600 L 0,150 C 122.78571428571428,135.28571428571428 245.57142857142856,120.57142857142858 355,132 C 464.42857142857144,143.42857142857142 560.5000000000001,181 680,186 C 799.4999999999999,191 942.4285714285713,163.42857142857142 1073,152 C 1203.5714285714287,140.57142857142858 1321.7857142857142,145.28571428571428 1440,150 L 1440,600 L 0,600 Z" stroke="none" stroke-width="0" fill="#10e094" fill-opacity="0.9" class="transition-all duration-300 ease-in-out delay-150 path-0"></path><path d="M 0,600 L 0,350 C 108.57142857142858,369.92857142857144 217.14285714285717,389.85714285714283 358,399 C 498.85714285714283,408.14285714285717 671.9999999999999,406.5 781,401 C 890.0000000000001,395.5 934.8571428571429,386.1428571428571 1034,377 C 1133.142857142857,367.8571428571429 1286.5714285714284,358.92857142857144 1440,350 L 1440,600 L 0,600 Z" stroke="none" stroke-width="0" fill="#00d084" fill-opacity="1" class="transition-all duration-300 ease-in-out delay-150 path-1"></path></svg>
